<svg width="128" height="128" viewBox="0 0 128 128" fill="none" xmlns="http://www.w3.org/2000/svg">
<g clip-path="url(#clip0_4_11)">
<rect width="128" height="128" fill="#3E020A"/>
<path d="M31.1725 97.4556C29.3536 97.7058 27.6427 97.7503 26.0398 97.5893C24.4369 97.4282 22.6986 96.877 20.8248 95.9356C18.9972 94.9333 17.3588 93.5234 15.9096 91.7059C12.6166 87.5802 10.3482 80.9969 9.10456 71.9561C8.42016 66.9809 8.48542 62.5022 9.30032 58.52C10.1152 54.5378 11.3956 51.3637 13.1415 48.9977C14.88 46.5782 17.0749 44.5048 19.7262 42.7773C22.3775 41.0499 24.9078 39.8297 27.3171 39.1167C29.7191 38.3502 32.311 37.7756 35.0928 37.3929C41.5123 36.5098 46.11 36.4497 48.8859 37.2125C51.6544 37.9219 53.252 39.8279 53.6789 42.9307C54.0174 45.3915 53.9306 48.1289 53.4186 51.1428C52.8992 54.1032 51.7568 55.7048 49.9914 55.9477C49.5634 56.0065 47.6894 55.8555 44.3692 55.4946C41.0417 55.0802 38.5755 54.9834 36.9706 55.2042C32.3699 55.8371 30.6031 60.032 31.6702 67.789C32.2074 71.6942 33.1434 74.5361 34.4783 76.3148C35.8058 78.04 37.2867 78.8992 38.921 78.8924L37.9275 71.6704C37.7436 70.333 38.9385 68.9149 41.5122 67.4162C44.086 65.9175 46.63 64.9952 49.1443 64.6493C51.6587 64.3034 53.4996 64.2137 54.6672 64.3801C55.8883 64.5392 56.7533 64.8835 57.2622 65.4131C58.1436 66.273 58.6358 67.0774 58.7388 67.8264L61.7965 90.0541C61.8922 90.7495 60.5518 91.5062 57.7754 92.3242C55.0525 93.1349 52.1664 93.7499 49.1171 94.1694C46.1213 94.5815 44.2038 94.709 43.3645 94.5519C42.518 94.3414 41.9492 93.5747 41.6582 92.252L40.4452 87.5949L39.8033 87.6832C39.7452 90.035 39.0546 92.1469 37.7313 94.0187C36.4616 95.8831 34.2753 97.0287 31.1725 97.4556Z" fill="#F0C648"/>
<path d="M26.0398 97.5893L26.4397 93.6093L26.0398 97.5893ZM20.8248 95.9356L18.9014 99.4428L18.9646 99.4774L19.029 99.5098L20.8248 95.9356ZM15.9096 91.7059L19.037 89.2122L19.0358 89.2107L15.9096 91.7059ZM9.30032 58.52L13.2191 59.322L13.2191 59.322L9.30032 58.52ZM13.1415 48.9977L16.3601 51.3727L16.3751 51.3524L16.3899 51.3318L13.1415 48.9977ZM19.7262 42.7773L21.9098 46.1287L21.9098 46.1287L19.7262 42.7773ZM27.3171 39.1167L28.4522 42.9523L28.4928 42.9402L28.5332 42.9274L27.3171 39.1167ZM48.8859 37.2125L47.8259 41.0695L47.8594 41.0788L47.8931 41.0874L48.8859 37.2125ZM53.4186 51.1428L57.3584 51.834L57.3603 51.8234L57.3621 51.8128L53.4186 51.1428ZM44.3692 55.4946L43.8749 59.464L43.9059 59.4678L43.937 59.4712L44.3692 55.4946ZM34.4783 76.3148L31.279 78.7158L31.2935 78.7351L31.3082 78.7541L34.4783 76.3148ZM38.921 78.8924L38.9376 82.8924L43.5063 82.8734L42.8837 78.3473L38.921 78.8924ZM54.6672 64.3801L54.1027 68.3401L54.1266 68.3435L54.1505 68.3466L54.6672 64.3801ZM57.2622 65.4131L54.378 68.1847L54.4227 68.2312L54.4689 68.2763L57.2622 65.4131ZM57.7754 92.3242L56.6449 88.4873L56.6341 88.4905L57.7754 92.3242ZM43.3645 94.5519L42.399 98.4337L42.513 98.462L42.6286 98.4837L43.3645 94.5519ZM41.6582 92.252L45.5648 91.3926L45.5483 91.3179L45.5291 91.2438L41.6582 92.252ZM40.4452 87.5949L44.3161 86.5867L43.4204 83.1479L39.9001 83.6322L40.4452 87.5949ZM39.8033 87.6832L39.2581 83.7205L35.8884 84.1841L35.8045 87.5845L39.8033 87.6832ZM37.7313 94.0187L34.4651 91.7096L34.4449 91.7382L34.4252 91.7671L37.7313 94.0187ZM30.6274 93.4929C29.0791 93.7059 27.6879 93.7347 26.4397 93.6093L25.6399 101.569C27.5976 101.766 29.6282 101.706 31.7176 101.418L30.6274 93.4929ZM26.4397 93.6093C25.4451 93.5094 24.1828 93.1462 22.6206 92.3613L19.029 99.5098C21.2144 100.608 23.4288 101.347 25.6399 101.569L26.4397 93.6093ZM22.7482 92.4283C21.4358 91.7086 20.194 90.6631 19.037 89.2122L12.7821 94.1997C14.5235 96.3837 16.5586 98.158 18.9014 99.4428L22.7482 92.4283ZM19.0358 89.2107C16.4113 85.9224 14.2754 80.1934 13.0672 71.4109L5.14187 72.5012C6.42111 81.8005 8.82189 89.238 12.7833 94.2012L19.0358 89.2107ZM13.0672 71.4109C12.4305 66.7825 12.5134 62.7705 13.2191 59.322L5.38154 57.7181C4.45741 62.234 4.40979 67.1794 5.14187 72.5012L13.0672 71.4109ZM13.2191 59.322C13.9594 55.7044 15.0645 53.1285 16.3601 51.3727L9.92286 46.6227C7.72675 49.5989 6.27106 53.3713 5.38154 57.7181L13.2191 59.322ZM16.3899 51.3318C17.8218 49.3389 19.6472 47.6029 21.9098 46.1287L17.5426 39.4259C14.5025 41.4067 11.9381 43.8176 9.89307 46.6636L16.3899 51.3318ZM21.9098 46.1287C24.3168 44.5605 26.4956 43.5313 28.4522 42.9523L26.1821 35.2811C23.3201 36.1281 20.4382 37.5393 17.5426 39.4259L21.9098 46.1287ZM28.5332 42.9274C30.6932 42.2381 33.0584 41.7105 35.6379 41.3556L34.5476 33.4303C31.5635 33.8408 28.745 34.4623 26.1011 35.306L28.5332 42.9274ZM35.6379 41.3556C42.027 40.4767 45.9064 40.542 47.8259 41.0695L49.9458 33.3555C46.3136 32.3574 40.9976 32.543 34.5476 33.4303L35.6379 41.3556ZM47.8931 41.0874C48.5922 41.2665 48.911 41.5242 49.095 41.7436C49.2991 41.9872 49.5789 42.4781 49.7162 43.4758L57.6415 42.3856C57.352 40.2805 56.6195 38.267 55.226 36.6045C53.8123 34.9179 51.948 33.8679 49.8787 33.3377L47.8931 41.0874ZM49.7162 43.4758C49.9881 45.4524 49.934 47.7717 49.4751 50.4728L57.3621 51.8128C57.9272 48.4861 58.0467 45.3306 57.6415 42.3856L49.7162 43.4758ZM49.4787 50.4515C49.2729 51.625 49.0058 52.1153 48.9157 52.2416C48.8875 52.2812 48.9259 52.2155 49.056 52.133C49.194 52.0454 49.3398 51.9996 49.4463 51.985L50.5365 59.9104C55.0708 59.2866 56.7741 55.1641 57.3584 51.834L49.4787 50.4515ZM49.4463 51.985C49.7378 51.9449 49.8756 51.9683 49.5592 51.9557C49.3481 51.9472 49.0299 51.9272 48.5861 51.8915C47.704 51.8204 46.4481 51.6971 44.8015 51.5181L43.937 59.4712C45.6104 59.6531 46.9517 59.7857 47.9436 59.8656C48.4369 59.9054 48.875 59.9347 49.2393 59.9493C49.4985 59.9596 50.031 59.9799 50.5365 59.9104L49.4463 51.985ZM44.8635 51.5253C41.4766 51.1035 38.5759 50.9457 36.4255 51.2415L37.5157 59.1669C38.5751 59.0212 40.6067 59.057 43.8749 59.464L44.8635 51.5253ZM36.4255 51.2415C32.7609 51.7456 29.9537 53.8413 28.5086 57.2724C27.2116 60.352 27.1379 64.1934 27.7075 68.3341L35.6329 67.2438C35.1354 63.6275 35.4116 61.4931 35.8814 60.3777C36.203 59.6139 36.5796 59.2957 37.5157 59.1669L36.4255 51.2415ZM27.7075 68.3341C28.2758 72.4649 29.3311 76.1202 31.279 78.7158L37.6776 73.9138C36.9558 72.9521 36.139 70.9234 35.6329 67.2438L27.7075 68.3341ZM31.3082 78.7541C33.1233 81.1131 35.6674 82.906 38.9376 82.8924L38.9044 74.8924C38.8323 74.8927 38.7482 74.8839 38.5919 74.7932C38.4059 74.6853 38.0774 74.433 37.6484 73.8755L31.3082 78.7541ZM42.8837 78.3473L41.8902 71.1253L33.9649 72.2155L34.9583 79.4375L42.8837 78.3473ZM41.8902 71.1253C41.941 71.4946 41.8823 71.8148 41.8033 72.0299C41.7332 72.2211 41.6704 72.2693 41.7446 72.1813C41.8181 72.0941 41.9815 71.9261 42.2887 71.6884C42.592 71.4536 42.9974 71.1801 43.5251 70.8729L39.4994 63.9596C38.0263 64.8173 36.6441 65.8191 35.6269 67.0263C34.583 68.2652 33.6674 70.0529 33.9649 72.2155L41.8902 71.1253ZM43.5251 70.8729C45.7245 69.5921 47.7744 68.8754 49.6895 68.612L48.5992 60.6866C45.4857 61.1149 42.4475 62.2428 39.4994 63.9596L43.5251 70.8729ZM49.6895 68.612C52.1581 68.2724 53.5259 68.2579 54.1027 68.3401L55.2317 60.4202C53.4734 60.1695 51.1592 60.3344 48.5992 60.6866L49.6895 68.612ZM54.1505 68.3466C54.3341 68.3705 54.4747 68.3976 54.5779 68.4226C54.6816 68.4476 54.7363 68.4677 54.7524 68.4741C54.7917 68.4897 54.6099 68.426 54.378 68.1847L60.1463 62.6415C58.7043 61.141 56.7486 60.6175 55.1839 60.4136L54.1505 68.3466ZM54.4689 68.2763C54.6004 68.4046 54.6967 68.5108 54.7653 68.5938C54.834 68.6771 54.8683 68.7292 54.8805 68.7491C54.9076 68.7935 54.816 68.6612 54.7762 68.3715L62.7015 67.2813C62.4219 65.2488 61.204 63.6705 60.0555 62.55L54.4689 68.2763ZM54.7762 68.3715L57.8339 90.5992L65.7592 89.509L62.7015 67.2813L54.7762 68.3715ZM57.8339 90.5992C57.6512 89.2714 58.2549 88.3423 58.562 87.984C58.8371 87.663 59.0425 87.5776 58.8965 87.66C58.6289 87.8111 57.9491 88.1031 56.645 88.4873L58.9059 96.1612C60.3782 95.7274 61.7568 95.232 62.8295 94.6264C63.3538 94.3305 64.0498 93.8743 64.6361 93.1903C65.2544 92.469 65.9897 91.1844 65.7592 89.509L57.8339 90.5992ZM56.6341 88.4905C54.1217 89.2385 51.4361 89.8127 48.572 90.2067L49.6622 98.1321C52.8967 97.6872 55.9833 97.0313 58.9167 96.158L56.6341 88.4905ZM48.572 90.2067C47.1209 90.4063 45.9948 90.5279 45.1667 90.5829C44.2323 90.6451 43.9829 90.5982 44.1005 90.6202L42.6286 98.4837C43.5855 98.6628 44.7144 98.6307 45.6975 98.5653C46.7869 98.4929 48.1175 98.3446 49.6622 98.1321L48.572 90.2067ZM44.3301 90.6702C44.5793 90.7322 44.8289 90.8424 45.0544 90.9981C45.2758 91.151 45.4248 91.3135 45.5154 91.4357C45.6773 91.6538 45.6362 91.717 45.5648 91.3926L37.7516 93.1114C38.1704 95.015 39.3544 97.6763 42.399 98.4337L44.3301 90.6702ZM45.5291 91.2438L44.3161 86.5867L36.5743 88.6031L37.7873 93.2602L45.5291 91.2438ZM39.9001 83.6322L39.2581 83.7205L40.3484 91.6459L40.9903 91.5576L39.9001 83.6322ZM35.8045 87.5845C35.7655 89.1654 35.3177 90.5035 34.4651 91.7096L40.9976 96.3277C42.7914 93.7902 43.725 90.9047 43.802 87.7819L35.8045 87.5845ZM34.4252 91.7671C34.0099 92.3769 33.0598 93.1583 30.6274 93.4929L31.7176 101.418C35.4908 100.899 38.9132 99.3893 41.0374 96.2703L34.4252 91.7671Z" fill="#FFFDCA"/>
<path d="M88.6301 93.3464C88.5389 94.0424 86.8323 94.3908 83.5101 94.3915C80.1878 94.3922 76.8937 94.1787 73.6276 93.7511C70.3614 93.3234 68.2978 92.8626 67.4366 92.3686C66.5755 91.8746 66.1975 91.2261 66.3027 90.4229L73.0645 38.7807C73.401 36.2106 81.2794 35.9352 96.6998 37.9542C106.016 39.1741 112.09 40.6228 114.92 42.3005C118.364 44.2764 120.561 46.6335 121.509 49.3719C122.788 52.9159 123.088 57.2847 122.407 62.4784C121.475 69.5996 119.567 74.6052 116.683 77.4953C114.608 79.6199 112.641 80.9145 110.783 81.3792C108.925 81.8439 107.386 82.1598 106.166 82.3268C105.007 82.4473 103.56 82.4757 101.825 82.4119C99.4414 82.3176 96.2148 82.0041 92.1455 81.4713L90.2285 81.1386L88.6301 93.3464ZM92.0545 67.8169L93.982 68.0693C94.9994 68.2025 95.82 68.1738 96.4441 67.9832C97.0751 67.739 97.6889 67.0025 98.2855 65.7736C98.9427 64.4981 99.4255 62.6824 99.7339 60.3265C100.049 57.9171 100.02 56.0616 99.6459 54.76C99.3323 53.4118 98.9218 52.5956 98.4144 52.3113C97.9675 51.9805 97.3961 51.7696 96.7 51.6784L94.2103 51.3524L92.0545 67.8169Z" fill="#F0C648"/>
<path d="M83.5101 94.3915L83.5092 90.3915L83.5092 90.3915L83.5101 94.3915ZM67.4366 92.3686L69.427 88.8989L69.4269 88.8989L67.4366 92.3686ZM114.92 42.3005L112.88 45.7414L112.905 45.7559L112.929 45.7702L114.92 42.3005ZM121.509 49.3719L117.73 50.6811L117.738 50.7053L117.747 50.7294L121.509 49.3719ZM116.683 77.4953L113.852 74.6701L113.837 74.685L113.822 74.7002L116.683 77.4953ZM110.783 81.3792L111.754 85.2597L111.754 85.2597L110.783 81.3792ZM106.166 82.3268L106.58 86.3054L106.644 86.2986L106.709 86.2898L106.166 82.3268ZM101.825 82.4119L101.667 86.4088L101.679 86.4092L101.825 82.4119ZM92.1455 81.4713L91.4616 85.4124L91.5436 85.4266L91.6262 85.4374L92.1455 81.4713ZM90.2285 81.1386L90.9125 77.1975L86.8038 76.4844L86.2624 80.6193L90.2285 81.1386ZM92.0545 67.8169L88.0883 67.2976L87.569 71.2637L91.5352 71.783L92.0545 67.8169ZM96.4441 67.9832L97.6125 71.8087L97.7517 71.7662L97.8873 71.7137L96.4441 67.9832ZM98.2855 65.7736L94.7297 63.9415L94.7079 63.9839L94.6871 64.0267L98.2855 65.7736ZM99.6459 54.76L95.7499 55.6663L95.7732 55.7664L95.8016 55.8651L99.6459 54.76ZM98.4144 52.3113L96.0343 55.5262L96.238 55.677L96.4592 55.801L98.4144 52.3113ZM94.2103 51.3524L94.7296 47.3863L90.7634 46.867L90.2441 50.8331L94.2103 51.3524ZM84.6639 92.8271C84.8684 91.2655 85.9364 90.5264 86.2495 90.3445C86.569 90.1589 86.7295 90.1599 86.4817 90.2105C86.0309 90.3025 85.0969 90.3912 83.5092 90.3915L83.5109 98.3915C85.2454 98.3911 86.8258 98.3052 88.0817 98.0489C88.6872 97.9253 89.4991 97.7087 90.2681 97.2619C91.0307 96.8189 92.3462 95.7753 92.5962 93.8657L84.6639 92.8271ZM83.5092 90.3915C80.3595 90.3922 77.2391 90.1898 74.1469 89.7849L73.1082 97.7172C76.5483 98.1676 80.0162 98.3922 83.5109 98.3915L83.5092 90.3915ZM74.1469 89.7849C72.5748 89.5791 71.372 89.3751 70.502 89.1808C69.5229 88.9622 69.2989 88.8255 69.427 88.8989L65.4463 95.8383C66.4355 96.4057 67.6739 96.7464 68.7585 96.9886C69.9521 97.2551 71.4142 97.4954 73.1082 97.7172L74.1469 89.7849ZM69.4269 88.8989C69.4279 88.8995 69.4443 88.9089 69.4723 88.9291C69.5004 88.9493 69.5422 88.9817 69.5928 89.0284C69.6954 89.123 69.8342 89.2762 69.9632 89.4975C70.256 90 70.3215 90.54 70.2688 90.9422L62.3365 89.9036C62.1787 91.109 62.3806 92.3748 63.0514 93.5259C63.689 94.6199 64.5981 95.3517 65.4463 95.8383L69.4269 88.8989ZM70.2688 90.9422L77.0306 39.3L69.0983 38.2614L62.3365 89.9036L70.2688 90.9422ZM77.0306 39.3C76.8081 40.9991 75.4151 41.2796 76.0402 41.0631C76.5009 40.9035 77.5264 40.7084 79.3655 40.6441C82.9634 40.5183 88.5216 40.9176 96.1805 41.9204L97.2191 33.9881C89.4576 32.9718 83.3664 32.4993 79.0859 32.649C76.9858 32.7224 75.0148 32.9519 73.4217 33.5037C71.9931 33.9986 69.4891 35.2772 69.0983 38.2614L77.0306 39.3ZM96.1805 41.9204C100.762 42.5203 104.461 43.166 107.314 43.8465C110.244 44.5454 111.995 45.2166 112.88 45.7414L116.959 38.8596C115.015 37.7067 112.314 36.8147 109.17 36.0649C105.95 35.2966 101.954 34.608 97.2191 33.9881L96.1805 41.9204ZM112.929 45.7702C115.847 47.444 117.198 49.145 117.73 50.6811L125.289 48.0626C123.924 44.122 120.881 41.1089 116.91 38.8308L112.929 45.7702ZM117.747 50.7294C118.741 53.4852 119.069 57.1651 118.441 61.9591L126.374 62.9977C127.106 57.4043 126.835 52.3466 125.272 48.0143L117.747 50.7294ZM118.441 61.9591C117.546 68.7979 115.795 72.7225 113.852 74.6701L119.515 80.3206C123.339 76.4879 125.404 70.4012 126.374 62.9977L118.441 61.9591ZM113.822 74.7002C112.002 76.563 110.659 77.287 109.813 77.4987L111.754 85.2597C114.623 84.542 117.214 82.6767 119.545 80.2905L113.822 74.7002ZM109.813 77.4987C108.028 77.9452 106.644 78.2241 105.624 78.3637L106.709 86.2898C108.129 86.0954 109.823 85.7426 111.754 85.2597L109.813 77.4987ZM105.753 78.3482C104.845 78.4425 103.601 78.4745 101.972 78.4146L101.679 86.4092C103.519 86.4769 105.168 86.4521 106.58 86.3054L105.753 78.3482ZM101.983 78.4151C99.7759 78.3277 96.6862 78.0317 92.6649 77.5051L91.6262 85.4374C95.7434 85.9765 99.1069 86.3075 101.667 86.4088L101.983 78.4151ZM92.8295 77.5302L90.9125 77.1975L89.5445 85.0797L91.4616 85.4124L92.8295 77.5302ZM86.2624 80.6193L84.6639 92.8271L92.5962 93.8657L94.1947 81.6579L86.2624 80.6193ZM91.5352 71.783L93.4627 72.0354L94.5014 64.1031L92.5738 63.8507L91.5352 71.783ZM93.4627 72.0354C94.7567 72.2049 96.219 72.2343 97.6125 71.8087L95.2756 64.1576C95.3705 64.1287 95.3677 64.145 95.2207 64.1501C95.077 64.1551 94.8429 64.1479 94.5014 64.1031L93.4627 72.0354ZM97.8873 71.7137C100.047 70.8781 101.23 68.8665 101.884 67.5204L94.6871 64.0267C94.586 64.235 94.4989 64.3917 94.4289 64.5054C94.3581 64.6204 94.3148 64.6749 94.3049 64.6869C94.294 64.6999 94.3356 64.647 94.4388 64.5656C94.5439 64.4829 94.73 64.3574 95.0008 64.2526L97.8873 71.7137ZM101.841 67.6056C102.804 65.7378 103.366 63.4 103.7 60.8458L95.7678 59.8072C95.4853 61.9648 95.0817 63.2583 94.7297 63.9415L101.841 67.6056ZM103.7 60.8458C104.039 58.2563 104.092 55.7489 103.49 53.6548L95.8016 55.8651C95.948 56.3742 96.0597 57.5778 95.7678 59.8072L103.7 60.8458ZM103.542 53.8536C103.346 53.0116 103.077 52.1358 102.676 51.3394C102.301 50.5938 101.613 49.5183 100.37 48.8217L96.4592 55.801C96.0744 55.5854 95.8327 55.3395 95.705 55.1864C95.6395 55.1079 95.5956 55.0438 95.5696 55.0029C95.5434 54.9618 95.5308 54.937 95.5293 54.934C95.5281 54.9317 95.555 54.9858 95.5992 55.1178C95.6425 55.2472 95.6943 55.427 95.7499 55.6663L103.542 53.8536ZM100.794 49.0965C99.6759 48.2684 98.4156 47.8689 97.2193 47.7123L96.1807 55.6446C96.2768 55.6571 96.298 55.6695 96.2653 55.6574C96.2293 55.6442 96.1429 55.6066 96.0343 55.5262L100.794 49.0965ZM97.2193 47.7123L94.7296 47.3863L93.691 55.3186L96.1807 55.6446L97.2193 47.7123ZM90.2441 50.8331L88.0883 67.2976L96.0206 68.3362L98.1764 51.8717L90.2441 50.8331Z" fill="#FFFDCA"/>
</g>
<defs>
<clipPath id="clip0_4_11">
<rect width="128" height="128" fill="white"/>
</clipPath>
</defs>
</svg>
